# xmcd
#
# Track frame offsets:
#	150
#	16413
#	30008
#	43399
#	55408
#	67546
#	81874
#	93461
#	110876
#	122057
#
# Disc length: 1838 seconds
#
# Revision: 1
# Processed by: cddbd v1.5.1PL0 Copyright (c) Steve Scherf et al.
# Submitted via: audiograbber 1.83.01
#
DISCID=7c072c0a
DTITLE=Johnny Cash - The Baron
DYEAR=1900
DGENRE=
TTITLE0=The Baron
TTITLE1=Mobile Bay
TTITLE2=The Hard Way
TTITLE3=A Ceiling, Four Walls and a Floor
TTITLE4=Hey, Hey, Train
TTITLE5=The Reverend Mr. Black
TTITLE6=The Blues Keep Gettin' Bluer
TTITLE7=Chattanooga City Limit Sighn
TTITLE8=Thanks to You
TTITLE9=The Greatest Love Affair
EXTD=
EXTT0=
EXTT1=
EXTT2=
EXTT3=
EXTT4=
EXTT5=
EXTT6=
EXTT7=
EXTT8=
EXTT9=
PLAYORDER=
